<?xml version="1.0" encoding="iso-8859-1"?>
<!-- Generator: Adobe Illustrator 18.0.0, SVG Export Plug-In . SVG Version: 6.00 Build 0)  -->
<!DOCTYPE svg PUBLIC "-//W3C//DTD SVG 1.1//EN" "http://www.w3.org/Graphics/SVG/1.1/DTD/svg11.dtd">
<svg version="1.1" id="Capa_1" xmlns="http://www.w3.org/2000/svg" xmlns:xlink="http://www.w3.org/1999/xlink" x="0px" y="0px"
	 viewBox="0 0 304.899 304.899" style="enable-background:new 0 0 304.899 304.899;" xml:space="preserve">
<path d="M303.649,149.064c-0.147-3.894-2.782-7.251-6.53-8.317l-55.186-15.697c-1.316-4.461-3.523-11.341-6.505-18.557
	c-7.445-18.025-15.64-28.503-25.049-32.031c-22.653-8.495-57.903-19.686-68.552-23.034l-9.346-44.286
	c-0.525-2.494-2.085-4.647-4.289-5.926c-2.206-1.28-4.849-1.563-7.273-0.783c-34.67,11.155-46.713,34.09-50.71,51.367
	c-2.318,10.018-2.2,19.246-1.587,25.681L3.399,151.667c-2.698,3.068-2.99,7.569-0.713,10.96l92.88,138.29
	c1.445,2.151,3.748,3.576,6.318,3.908c0.385,0.05,0.771,0.074,1.153,0.074c2.178,0,4.297-0.791,5.95-2.248l46.703-41.154
	l71.623-5.625c13.682-0.296,38.238-6.618,41.695-28.004C279.722,220.458,305.477,197.511,303.649,149.064z M195.233,146.38
	c-0.382,0.026-0.764,0.038-1.143,0.038c-8.81,0-16.153-6.87-16.72-15.641c-0.048-0.739-0.03-1.465,0.018-2.186h33.495
	C211.46,137.784,204.446,145.758,195.233,146.38z"/>
<g>
</g>
<g>
</g>
<g>
</g>
<g>
</g>
<g>
</g>
<g>
</g>
<g>
</g>
<g>
</g>
<g>
</g>
<g>
</g>
<g>
</g>
<g>
</g>
<g>
</g>
<g>
</g>
<g>
</g>
</svg>
